<?xml version="1.0" standalone="no"?>
<!DOCTYPE svg PUBLIC "-//W3C//DTD SVG 20010904//EN"
 "http://www.w3.org/TR/2001/REC-SVG-20010904/DTD/svg10.dtd">
<svg version="1.0" xmlns="http://www.w3.org/2000/svg"
 width="512.000000pt" height="512.000000pt" viewBox="0 0 512.000000 512.000000"
 preserveAspectRatio="xMidYMid meet">

<g transform="translate(0.000000,512.000000) scale(0.100000,-0.100000)"
fill="#000000" stroke="none">
<path d="M1660 5105 c-451 -55 -894 -288 -1185 -623 -505 -580 -616 -1382
-285 -2067 281 -583 833 -975 1484 -1056 153 -18 431 -7 584 25 249 53 468
144 673 281 l113 76 871 -871 870 -870 168 167 167 168 -871 871 -870 870 75
113 c135 199 229 424 282 673 35 168 44 448 20 621 -57 404 -230 761 -510
1055 -409 427 -1000 639 -1586 567z m480 -480 c297 -57 542 -187 754 -401 188
-189 322 -440 382 -714 26 -120 27 -429 1 -550 -122 -570 -547 -995 -1117
-1117 -130 -28 -441 -25 -568 5 -578 137 -984 558 -1099 1137 -26 133 -23 386
5 522 130 609 614 1056 1228 1133 96 12 313 4 414 -15z"/>
</g>
</svg>
